<?xml version="1.0" encoding="UTF-8" standalone="no"?>
<svg
   viewBox="0 0 180 180"
   version="1.1"
   id="svg17"
   sodipodi:docname="logo.svg"
   width="180"
   height="180"
   inkscape:version="1.3.2 (091e20e, 2023-11-25, custom)"
   inkscape:export-filename="logo.png"
   inkscape:export-xdpi="96"
   inkscape:export-ydpi="96"
   xmlns:inkscape="http://www.inkscape.org/namespaces/inkscape"
   xmlns:sodipodi="http://sodipodi.sourceforge.net/DTD/sodipodi-0.dtd"
   xmlns:xlink="http://www.w3.org/1999/xlink"
   xmlns="http://www.w3.org/2000/svg"
   xmlns:svg="http://www.w3.org/2000/svg">
  <sodipodi:namedview
     id="namedview17"
     pagecolor="#505050"
     bordercolor="#eeeeee"
     borderopacity="1"
     inkscape:showpageshadow="0"
     inkscape:pageopacity="0"
     inkscape:pagecheckerboard="0"
     inkscape:deskcolor="#505050"
     inkscape:zoom="4.5166667"
     inkscape:cx="89.889299"
     inkscape:cy="90"
     inkscape:window-width="1920"
     inkscape:window-height="1009"
     inkscape:window-x="-8"
     inkscape:window-y="-8"
     inkscape:window-maximized="1"
     inkscape:current-layer="layer2" />
  <defs
     id="defs12">
    <linearGradient
       id="a"
       gradientUnits="userSpaceOnUse"
       x1="27.5"
       y1="3"
       x2="152"
       y2="63.5">
      <stop
         offset=".1"
         stop-color="#76b3e1"
         id="stop1" />
      <stop
         offset=".3"
         stop-color="#dcf2fd"
         id="stop2" />
      <stop
         offset="1"
         stop-color="#76b3e1"
         id="stop3" />
    </linearGradient>
    <linearGradient
       id="b"
       gradientUnits="userSpaceOnUse"
       x1="95.800003"
       y1="32.599998"
       x2="74"
       y2="105.2">
      <stop
         offset="0"
         stop-color="#76b3e1"
         id="stop4" />
      <stop
         offset=".5"
         stop-color="#4377bb"
         id="stop5" />
      <stop
         offset="1"
         stop-color="#1f3b77"
         id="stop6" />
    </linearGradient>
    <linearGradient
       id="c"
       gradientUnits="userSpaceOnUse"
       x1="18.4"
       y1="64.199997"
       x2="144.3"
       y2="149.8">
      <stop
         offset="0"
         stop-color="#315aa9"
         id="stop7" />
      <stop
         offset=".5"
         stop-color="#518ac8"
         id="stop8" />
      <stop
         offset="1"
         stop-color="#315aa9"
         id="stop9" />
    </linearGradient>
    <linearGradient
       id="d"
       gradientUnits="userSpaceOnUse"
       x1="75.199997"
       y1="74.5"
       x2="24.4"
       y2="260.79999">
      <stop
         offset="0"
         stop-color="#4377bb"
         id="stop10" />
      <stop
         offset=".5"
         stop-color="#1a336b"
         id="stop11" />
      <stop
         offset="1"
         stop-color="#1a336b"
         id="stop12" />
    </linearGradient>
    <linearGradient
       inkscape:collect="always"
       xlink:href="#b"
       id="linearGradient94"
       gradientUnits="userSpaceOnUse"
       x1="21.287674"
       y1="0"
       x2="167.30423"
       y2="0" />
  </defs>
  <g
     inkscape:groupmode="layer"
     id="layer1"
     inkscape:label="Solid"
     transform="translate(6.5,12.371728)"
     sodipodi:insensitive="true">
    <path
       d="M 163,35 C 163,35 110,-4 69,5 l -3,1 c -6,2 -11,5 -14,9 l -2,3 -15,26 26,5 c 11,7 25,10 38,7 l 46,9 z"
       fill="#76b3e1"
       id="path12" />
    <path
       d="M 163,35 C 163,35 110,-4 69,5 l -3,1 c -6,2 -11,5 -14,9 l -2,3 -15,26 26,5 c 11,7 25,10 38,7 l 46,9 z"
       opacity="0.3"
       fill="url(#a)"
       id="path13"
       style="fill:url(#a)" />
    <path
       d="m 52,35 -4,1 C 31,41 26,57 35,71 45,84 66,91 83,86 L 145,65 C 145,65 92,26 52,35 Z"
       fill="#518ac8"
       id="path14" />
    <path
       d="m 52,35 -4,1 C 31,41 26,57 35,71 45,84 66,91 83,86 L 145,65 C 145,65 92,26 52,35 Z"
       opacity="0.3"
       fill="url(#b)"
       id="path15"
       style="fill:url(#b)" />
    <path
       d="M 134,80 A 45,45 0 0 0 86,65 l -62,20 -20,35 112,19 20,-36 c 4,-7 3,-15 -2,-23 z"
       fill="url(#c)"
       id="path16"
       style="fill:url(#c)" />
    <path
       d="M 114,115 A 45,45 0 0 0 66,100 L 4,120 c 0,0 53,40 94,30 l 3,-1 c 17,-5 23,-21 13,-34 z"
       fill="url(#d)"
       id="path17"
       style="fill:url(#d)" />
  </g>
  <g
     inkscape:groupmode="layer"
     id="layer2"
     inkscape:label="Plus"
     style="opacity:1">
    <path
       sodipodi:type="star"
       style="-inkscape-stroke:hairline;stroke-width:1;stroke:#ffffff;fill:url(#linearGradient94);"
       id="path25"
       inkscape:flatsided="false"
       sodipodi:sides="4"
       sodipodi:cx="94.295952"
       sodipodi:cy="0"
       sodipodi:r1="73.008278"
       sodipodi:r2="10.951242"
       sodipodi:arg1="1.5707963"
       sodipodi:arg2="2.3561945"
       inkscape:rounded="0.15"
       inkscape:randomized="0"
       d="m 94.295954,73.008278 c -9.858356,0 -0.772789,-58.29367 -7.7437,-65.2645803 C 79.581344,0.77278763 21.287674,9.8583578 21.287674,1.9562493e-6 21.287674,-9.858354 79.581344,-0.77278734 86.552254,-7.7436979 c 6.97091,-6.9709101 -2.11466,-65.2645801 7.743696,-65.2645801 9.85836,0 0.772789,58.29367 7.7437,65.2645803 6.97091,6.97091007 65.26458,-2.1146601 65.26458,7.7436957437507 C 167.30423,9.858354 109.01056,0.77278734 102.03965,7.7436979 95.068739,14.714608 104.15431,73.008278 94.295954,73.008278 Z"
       transform="matrix(0.3021188,0.95589155,-0.9298261,0.31058799,61.090856,-0.03073122)" />
  </g>
</svg>
